<svg fill="#FFFFFF" xmlns="http://www.w3.org/2000/svg" viewBox="0 0 512 512"><title>avoid crowd-crowd-coronavirus-group-social</title><g id="Outline"><path d="M256,112H240V96h16Zm0,206.81h16v-16H256ZM64,200H80V184H64Zm384-16H432v16h16ZM425.706,86.294a240.092,240.092,0,0,1,35.386,294.418l-13.663-8.325A223.438,223.438,0,0,0,479.856,264H384a24.027,24.027,0,0,0-24,24v72H344V288a40.045,40.045,0,0,1,40-40h17.376A23.885,23.885,0,0,1,400,240V220.944l-11.578-5.789a8,8,0,0,1-3.078-11.593L397,186.072a31.3,31.3,0,0,0,4.681-11.307l.129-.616a46.957,46.957,0,0,1,2.915-9.328,47.537,47.537,0,0,1,40.579-28.706,225.221,225.221,0,0,0-25.37-32.74l-70.064,70.064A39.829,39.829,0,0,1,360,200v40H344V200a23.888,23.888,0,0,0-5.462-15.225L284.5,238.81H312a8,8,0,0,1,8,8,39.966,39.966,0,0,1-16.109,32.062l23.42,52.689A8,8,0,0,1,320,342.81H304v16a23.885,23.885,0,0,1-1.376,8H320a40.045,40.045,0,0,1,40,40v47.612a223.141,223.141,0,0,0,24-14.614V304h16V427.546a225.617,225.617,0,0,0,35.331-37.3l12.8,9.6a242.178,242.178,0,0,1-83,69.964A240.045,240.045,0,0,1,16,256,240,240,0,0,1,121.231,57.384l9,13.232A224.56,224.56,0,0,0,78.033,120H96a24.008,24.008,0,0,1,16.986,40.967,24.4,24.4,0,0,1-2.693,2.3A47.789,47.789,0,0,1,112,176v5.578l14.656,21.984a8,8,0,0,1-3.078,11.593L112,220.944V248h16a40.045,40.045,0,0,1,40,40v32H152V288a24.027,24.027,0,0,0-24-24H32.156A222.241,222.241,0,0,0,92.062,408.625L112,388.687V304h16v68.687l80-80V278.81a40.045,40.045,0,0,1,40-40h13.876l62.418-62.418C322.9,176.139,192,176,192,176a24.028,24.028,0,0,0-24,24v40H152V200a40.045,40.045,0,0,1,40-40h17.376A23.885,23.885,0,0,1,208,152V132.944l-11.578-5.789a8,8,0,0,1-2.079-12.812L208,100.687V88c0-25.969,21.966-48,48-48a48.016,48.016,0,0,1,41.564,24.04A48.048,48.048,0,0,1,344,112v44.687l64.625-64.625a224.078,224.078,0,0,0-266.21-29.17L134.29,49.108A242.181,242.181,0,0,1,256,16,238.432,238.432,0,0,1,425.706,86.294ZM288,107.587A150.739,150.739,0,0,1,227.044,74.4,31.937,31.937,0,0,0,224,88v16a8,8,0,0,1-2.343,5.657l-8.152,8.152,6.073,3.036A8,8,0,0,1,224,128v24a8.009,8.009,0,0,0,8,8h56ZM288,88a31.994,31.994,0,0,0-50.742-25.931A135.123,135.123,0,0,0,288,90.932ZM57.608,152H96a7.864,7.864,0,0,0,2.178-.3,8.052,8.052,0,0,0,3.5-2.054A8.009,8.009,0,0,0,96,136H66.872Q61.915,143.812,57.608,152ZM32.156,248H96V216a8,8,0,0,1,4.422-7.155l7.895-3.948L97.344,188.438A7.993,7.993,0,0,1,96,184v-8a31.875,31.875,0,0,0-1.016-8H58.667l-12.374,9.282A223.768,223.768,0,0,0,32.156,248ZM112,411.313l-8.625,8.625q4.23,3.945,8.625,7.645ZM224.107,276.579l21.662-21.662A24.038,24.038,0,0,0,224.107,276.579ZM192,366.81h16v-51.5l-80,80v44.574A222.36,222.36,0,0,0,152,454.5V406.81A40.045,40.045,0,0,1,192,366.81Zm0,16a24.027,24.027,0,0,0-24,24V462.1a221.146,221.146,0,0,0,24,8.656V422.81h16v52.052a226.91,226.91,0,0,0,96,.006V422.81h16v47.941a221.079,221.079,0,0,0,24-8.707V406.81a24.027,24.027,0,0,0-24-24Zm97.408-97.128A39.922,39.922,0,0,1,280,286.81H242.422l-17.756,11.837-.666.666v67.5h56a8.009,8.009,0,0,0,8-8v-24a8,8,0,0,1,8-8h11.689ZM268.5,254.81l-16,16H280a24.041,24.041,0,0,0,22.629-16ZM328,112a32.051,32.051,0,0,0-24.53-31.111C303.816,83.21,304,128,304,128a32.057,32.057,0,0,0,24,30.988Zm132.687,64H417.8c-.113.46-.222.921-.316,1.39l-.128.6a47.079,47.079,0,0,1-7.041,16.96l-6.631,9.946,7.895,3.948A8,8,0,0,1,416,216v24a8.009,8.009,0,0,0,8,8h55.844a223.816,223.816,0,0,0-11.869-64.711ZM448.44,152a31.644,31.644,0,0,0-20.008,7.157c-.331.272-.647.559-.966.843h31.046c-1.171-2.466-2.4-4.906-3.663-7.329A31.439,31.439,0,0,0,448.44,152Z"/></g></svg>