<svg fill="#3b82f6" xmlns="http://www.w3.org/2000/svg" viewBox="0 0 64 64"><g id="Layer_24" data-name="Layer 24"><path d="M62.234,23.558,44,15.323V9a3,3,0,0,0-3-3H23a3,3,0,0,0-3,3v6.323L1.766,23.558A3,3,0,0,0,0,26.291V29a1,1,0,0,0,1,1,.985.985,0,0,0,.411-.089L2,29.645V57a1,1,0,0,0,1,1H61a1,1,0,0,0,1-1V29.645l.589.266A.985.985,0,0,0,63,30a1,1,0,0,0,1-1V26.291A3,3,0,0,0,62.234,23.558ZM22,9a1,1,0,0,1,1-1H41a1,1,0,0,1,1,1V27a1,1,0,0,1-1,1H23a1,1,0,0,1-1-1ZM2,26.291a1,1,0,0,1,.588-.911L20,17.516v1.807L2,27.451ZM4,34H14.184A2.947,2.947,0,0,0,16,37.816V56H4Zm44,1a1,1,0,0,1-1,1H17a1,1,0,0,1,0-2H47A1,1,0,0,1,48,35ZM37,48H27V42H37ZM26,50h5v6H21V50Zm7,6V50H43v6Zm12,0V49a1,1,0,0,0-1-1H39V41a1,1,0,0,0-1-1H26a1,1,0,0,0-1,1v7H20a1,1,0,0,0-1,1v7H18V38H46V56Zm3,0V37.816A2.947,2.947,0,0,0,49.816,34H60V56ZM60,32H4V28.742l16-7.226V27a3,3,0,0,0,3,3H41a3,3,0,0,0,3-3V21.516l16,7.226Zm2-4.549L44,19.323V17.517L61.412,25.38a1,1,0,0,1,.588.911Z"/><path d="M23,55a1,1,0,0,0,1-1V52a1,1,0,0,0-2,0v2A1,1,0,0,0,23,55Z"/><path d="M29,55a1,1,0,0,0,1-1V52a1,1,0,0,0-2,0v2A1,1,0,0,0,29,55Z"/><path d="M26,55a1,1,0,0,0,1-1V52a1,1,0,0,0-2,0v2A1,1,0,0,0,26,55Z"/><path d="M35,51a1,1,0,0,0-1,1v2a1,1,0,0,0,2,0V52A1,1,0,0,0,35,51Z"/><path d="M41,51a1,1,0,0,0-1,1v2a1,1,0,0,0,2,0V52A1,1,0,0,0,41,51Z"/><path d="M38,51a1,1,0,0,0-1,1v2a1,1,0,0,0,2,0V52A1,1,0,0,0,38,51Z"/><path d="M29,47a1,1,0,0,0,1-1V44a1,1,0,0,0-2,0v2A1,1,0,0,0,29,47Z"/><path d="M35,47a1,1,0,0,0,1-1V44a1,1,0,0,0-2,0v2A1,1,0,0,0,35,47Z"/><path d="M32,47a1,1,0,0,0,1-1V44a1,1,0,0,0-2,0v2A1,1,0,0,0,32,47Z"/><path d="M13,44H7a1,1,0,0,0-1,1v4a1,1,0,0,0,1,1h6a1,1,0,0,0,1-1V45A1,1,0,0,0,13,44Zm-1,4H8V46h4Z"/><path d="M57,44H51a1,1,0,0,0-1,1v4a1,1,0,0,0,1,1h6a1,1,0,0,0,1-1V45A1,1,0,0,0,57,44Zm-1,4H52V46h4Z"/><path d="M24,27a1,1,0,0,0,.707-.293l1.5-1.5a2.926,2.926,0,0,0,3.345-.576l.692-.692,0,0,2.766-2.767L34.379,19.8l.678.677a1,1,0,0,0,1.414-1.414l-.677-.677L37.187,17a2.467,2.467,0,0,0,3.09-3.812l-3.46-3.46a2.467,2.467,0,0,0-3.812,3.09l-1.393,1.393-.677-.677a1,1,0,0,0-1.414,1.414l.677.678-1.369,1.368-2.767,2.766,0,0-.691.691a2.926,2.926,0,0,0-.577,3.346l-1.5,1.5A1,1,0,0,0,24,27Zm2.783-3.783a.956.956,0,0,1-.014-1.338l1.352,1.352A.979.979,0,0,1,26.783,23.217Zm7.6-6.243L33.026,15.62l1.354-1.354,1.354,1.354Zm.361-5.837a.468.468,0,0,1,.662,0l3.46,3.46a.468.468,0,0,1-.662.662l-3.46-3.46A.47.47,0,0,1,34.741,11.137Zm-1.776,7.251-.661.662L30.95,17.7l.662-.661Zm-3.429.722,1.354,1.354-1.354,1.354-1.354-1.354Z"/></g></svg>