<svg fill="#3b82f6" xmlns="http://www.w3.org/2000/svg" viewBox="0 0 64 64"><g id="Layer_32" data-name="Layer 32"><path d="M54.9,8A34.891,34.891,0,0,1,35.485,2.122L32.555.168a1,1,0,0,0-1.11,0l-2.93,1.954A34.973,34.973,0,0,1,9,8,1,1,0,0,0,8,9V31.324A31.017,31.017,0,0,0,21.3,56.773l10.132,7.048a1,1,0,0,0,1.142,0L42.7,56.773A31.017,31.017,0,0,0,56,31.324V9A1.089,1.089,0,0,0,54.9,8ZM54,31.324A29.014,29.014,0,0,1,41.561,55.131L32,61.782l-9.561-6.651A29.014,29.014,0,0,1,10,31.324V9.989a36.876,36.876,0,0,0,19.624-6.2L32,2.2l2.376,1.584A36.934,36.934,0,0,0,54,9.987Z"/><path d="M32.555,4.976a1,1,0,0,0-1.11,0l-.712.474A39.315,39.315,0,0,1,12.9,12.005,1,1,0,0,0,12,13V31.324A27.016,27.016,0,0,0,23.581,53.49l.01.006,7.847,5.331a1,1,0,0,0,1.124,0l7.857-5.337A27.016,27.016,0,0,0,52,31.324V13a1,1,0,0,0-.9-.995A39.255,39.255,0,0,1,33.267,5.45ZM50,31.324A25.01,25.01,0,0,1,39.286,51.842L32,56.791l-7.281-4.946A25.012,25.012,0,0,1,14,31.324V13.9A41.542,41.542,0,0,0,31.843,7.114L32,7.01l.157.1A41.489,41.489,0,0,0,50,13.9Z"/><path d="M31,12v5.184A3,3,0,0,0,29,20v.7l-1.832,2.748A1.006,1.006,0,0,0,27,24V39.184A2.993,2.993,0,0,0,28,45h1v2a3,3,0,0,0,0,6h6a3,3,0,0,0,0-6V45h1a2.993,2.993,0,0,0,1-5.816V24a1.006,1.006,0,0,0-.168-.555L35,20.7V20a3,3,0,0,0-2-2.816V12a1,1,0,0,0-2,0Zm1,7a1,1,0,0,1,1,1H31A1,1,0,0,1,32,19Zm3,6v7H29V31h2a1,1,0,0,0,0-2H29V28h2a1,1,0,0,0,0-2H29V25Zm-6,9h6v1H29Zm0,3h6v2H29Zm.868-14,.667-1h2.93l.667,1ZM36,50a1,1,0,0,1-1,1H29a1,1,0,0,1,0-2h6A1,1,0,0,1,36,50Zm-3-3H31V45h2Zm3-4H28a1,1,0,0,1,0-2h8a1,1,0,0,1,0,2Z"/><path d="M41,19h1v1a1,1,0,0,0,2,0V19h1a1,1,0,0,0,0-2H44V16a1,1,0,0,0-2,0v1H41a1,1,0,0,0,0,2Z"/><path d="M22,26H21V25a1,1,0,0,0-2,0v1H18a1,1,0,0,0,0,2h1v1a1,1,0,0,0,2,0V28h1a1,1,0,0,0,0-2Z"/></g></svg>