<svg fill="#3b82f6" xmlns="http://www.w3.org/2000/svg" viewBox="0 0 64 64"><g id="Layer_19" data-name="Layer 19"><path d="M62.587,56.931,51.051,45.394a.987.987,0,0,1-.162-1.188A17,17,0,0,0,41.3,19.848l1.39-2.085A3.957,3.957,0,0,0,44,18a4,4,0,0,0,0-8,3.957,3.957,0,0,0-1.306.237l-3.407-5.11,3.42-3.42A1,1,0,0,0,41.293.293L37.586,4H28.414L24.707.293a1,1,0,0,0-1.414,1.414l3.42,3.42-3.406,5.11A3.932,3.932,0,0,0,18.142,13H12a1,1,0,0,0-.832.445L5.465,22H1a1,1,0,0,0,0,2H5.465l3.564,5.347a3.934,3.934,0,0,0,0,5.307L5.168,40.445a1,1,0,0,0,0,1.11l5.545,8.318-4.42,4.42a1,1,0,1,0,1.414,1.414L12.414,51h9.172l4.707,4.707a1,1,0,0,0,1.414-1.414l-4.42-4.42L24.3,48.348a17.027,17.027,0,0,0,19.9,2.541.987.987,0,0,1,1.187.161L57.051,62.707a4.017,4.017,0,0,0,2.83,1.171h.1a3.965,3.965,0,0,0,2.871-1.325A4.088,4.088,0,0,0,62.587,56.931ZM36,19a16.9,16.9,0,0,0-8.095,2.054l-2.934-4.4a3.935,3.935,0,0,0,0-5.306L28.535,6h8.93l3.564,5.346a3.937,3.937,0,0,0,0,5.308l-1.772,2.658A17.285,17.285,0,0,0,36,19Zm10-5a2,2,0,1,1-2-2A2,2,0,0,1,46,14ZM22,12a2,2,0,1,1-2,2A2,2,0,0,1,22,12Zm-9.465,3h5.607a3.932,3.932,0,0,0,5.165,2.763l2.907,4.36A17.045,17.045,0,0,0,19.753,31H15.858a3.932,3.932,0,0,0-5.165-2.763L7.2,23ZM10,32a2,2,0,1,1,2,2A2,2,0,0,1,10,32Zm.694,3.763A3.931,3.931,0,0,0,15.858,33h3.423A16.876,16.876,0,0,0,22.9,46.853L21.465,49h-8.93L7.2,41ZM61.368,61.214a1.99,1.99,0,0,1-1.436.664,2.056,2.056,0,0,1-1.467-.585L46.808,49.635a3.013,3.013,0,0,0-3.569-.5,15,15,0,1,1,5.9-5.9,3.011,3.011,0,0,0,.5,3.57L61.173,58.345A2.119,2.119,0,0,1,61.368,61.214Z"/><path d="M36,23A13,13,0,1,0,49,36,13.015,13.015,0,0,0,36,23Zm0,2a10.974,10.974,0,0,1,2.294.245L42.8,32l-3.491,5.237A3.932,3.932,0,0,0,34.142,40H28.535l-3.466-5.2A11.013,11.013,0,0,1,36,25Zm4,16a2,2,0,1,1-2-2A2,2,0,0,1,40,41ZM25.4,38.906,26.8,41l-.321.482A10.956,10.956,0,0,1,25.4,38.906ZM36,47a10.965,10.965,0,0,1-8.278-3.78L28.535,42h5.607a3.99,3.99,0,1,0,6.829-3.653l3.861-5.792a1,1,0,0,0,0-1.11l-3.286-4.929A10.99,10.99,0,0,1,36,47Z"/></g></svg>