<svg fill="#3b82f6" xmlns="http://www.w3.org/2000/svg" viewBox="0 0 48 48"><title>Healthy Food</title><g id="Healthy_Food" data-name="Healthy Food"><path d="M44,26H41.91A6.0607,6.0607,0,0,0,42,25a5.9564,5.9564,0,0,0-.6651-2.733c2.4606-1.1191,2.4418-3.5236,2.419-5.683-.0215-2.0708-.0439-4.2114,1.5371-6.1895,2.7412-3.4263,1.5225-5.4482.8711-6.1587-1.3916-1.5181-4.1768-1.6509-6.207-.2979-1.1016.7349-2.6445.6733-4.14.6123-2.0273-.08-4.33-.1743-5.2344,2.0781-1.3018,3.2559-2.874,3.5234-5.0508,3.8936a15.2625,15.2625,0,0,0-2.335.5288,4.2053,4.2053,0,0,0-2.7219,3.62A7.2854,7.2854,0,0,0,17.27,14a8.941,8.941,0,0,0-2.2307.2883C15.1636,13.1906,15.7,11,18,11a1,1,0,0,0,0-2,4.5363,4.5363,0,0,0-4.3484,2.8677,5.8636,5.8636,0,0,0-.7161-.8867c-2.251-2.2388-5.91-2.07-6.0693-2.06a1.0007,1.0007,0,0,0-.9453.9448A9.6051,9.6051,0,0,0,7.1595,14.86C5.1011,16.048,4,18.4423,4,21.89A15.448,15.448,0,0,0,4.5887,26H4a3,3,0,0,0,0,6h.0507A14.0078,14.0078,0,0,0,18,45H30A14.0078,14.0078,0,0,0,43.9493,32H44a3,3,0,0,0,0-6ZM32.14,26A4.0508,4.0508,0,0,1,32,25a4,4,0,0,1,8,0,4.0508,4.0508,0,0,1-.14,1ZM23.8262,12.9487a13.489,13.489,0,0,1,2.04-.4551c2.2744-.3872,4.8535-.8257,6.5713-5.1211.3428-.8516,1.2686-.9043,3.2979-.8237,1.7227.07,3.6855.1484,5.3291-.9468a3.0537,3.0537,0,0,1,3.623-.0146c.6309.6885.2725,2.0186-.959,3.5586-2.0254,2.5347-1.9971,5.2651-1.9736,7.459.0258,2.4946-.071,3.5146-1.6828,4.001A5.99,5.99,0,0,0,30,25a6.0607,6.0607,0,0,0,.09,1H26.9371C30.0135,18.0051,37.6987,11.8491,37.78,11.7847a1,1,0,0,0-1.2393-1.57C36.18,10.5,27.8954,17.1345,24.8137,26H23.4113A15.448,15.448,0,0,0,24,21.89a8.9548,8.9548,0,0,0-1.6449-5.73C22.3535,14.8407,22.629,13.3457,23.8262,12.9487ZM7.959,10.9619a6.0158,6.0158,0,0,1,3.5645,1.4351A4.6176,4.6176,0,0,1,12.5888,14.2,8.972,8.972,0,0,0,10.73,14a8.517,8.517,0,0,0-1.6483.1566A6.4261,6.4261,0,0,1,7.959,10.9619ZM6,21.89C6,16,9.5605,16,10.73,16a6.9261,6.9261,0,0,1,2.8594.6118.9934.9934,0,0,0,.82,0A6.9261,6.9261,0,0,1,17.27,16a4.3271,4.3271,0,0,1,3.3812,1.2627c.0187.0195.0336.0407.0538.0586A6.7339,6.7339,0,0,1,22,21.89,13.7457,13.7457,0,0,1,21.3079,26H6.6921A13.7457,13.7457,0,0,1,6,21.89ZM30,43H18A12.0167,12.0167,0,0,1,6.041,32H41.959A12.0167,12.0167,0,0,1,30,43ZM44,30H4a1,1,0,0,1,0-2H44a1,1,0,0,1,0,2Z"/></g></svg>