<svg fill="#3b82f6" xmlns="http://www.w3.org/2000/svg" viewBox="0 0 48 48"><title>Doctor</title><g id="Doctor"><path d="M34,26H28.8819l-.4044-3.2076a9.0369,9.0369,0,0,0,4.4942-7.1157A3.5016,3.5016,0,0,0,33,9.3369V6a5.0059,5.0059,0,0,0-5-5H20a5.0059,5.0059,0,0,0-5,5V9.3369a3.5013,3.5013,0,0,0,.0249,6.3379,9.0052,9.0052,0,0,0,4.4974,7.1191L19.1181,26H14a7.0082,7.0082,0,0,0-7,7V44a3.0033,3.0033,0,0,0,3,3H38a3.0033,3.0033,0,0,0,3-3V33A7.0082,7.0082,0,0,0,34,26ZM20,3h8a3.0033,3.0033,0,0,1,3,3v.9893c-6.959-.1533-10.5186-1.8672-10.5527-1.8838a1,1,0,0,0-1.3418.4473A2.9666,2.9666,0,0,1,17,6.8711V6A3.0033,3.0033,0,0,1,20,3ZM17,14.95a1.001,1.001,0,0,0-.8018-.98,1.5,1.5,0,0,1,0-2.9395A1.001,1.001,0,0,0,17,10.05V8.9073a5.6342,5.6342,0,0,0,3.3667-1.67A32.709,32.709,0,0,0,31,8.9768V10.05a1.001,1.001,0,0,0,.8018.98,1.5,1.5,0,0,1,0,2.9395A1.0566,1.0566,0,0,0,31,15a7,7,0,1,1-14-.05ZM24,24a8.9617,8.9617,0,0,0,2.5667-.3739l.403,3.1962A33.2191,33.2191,0,0,1,24,31.7861a33.2191,33.2191,0,0,1-2.97-4.9639l.403-3.1956A8.97,8.97,0,0,0,24,24ZM39,44a1.001,1.001,0,0,1-1,1H10a1.001,1.001,0,0,1-1-1V33a5.0059,5.0059,0,0,1,5-5h5.3878C22.44,33.9814,23.49,34,24,34s1.56-.0186,4.6122-6H34a5.0059,5.0059,0,0,1,5,5Zm-3-7a1,1,0,0,1-1,1H33v2a1,1,0,0,1-2,0V38H29a1,1,0,0,1,0-2h2V34a1,1,0,0,1,2,0v2h2A1,1,0,0,1,36,37Z"/></g></svg>