<svg fill="#3b82f6" xmlns="http://www.w3.org/2000/svg" viewBox="0 0 48 48"><title>Medicine</title><g id="Medicine"><path d="M36.6494,13.9717,31,10.4453V8a2.002,2.002,0,0,0,2-2V3a2.002,2.002,0,0,0-2-2H17a2.002,2.002,0,0,0-2,2V6a2.002,2.002,0,0,0,2,2v2.4453l-5.6548,3.5293A5.0037,5.0037,0,0,0,9,18.22V44a3.0033,3.0033,0,0,0,3,3H36a3.0033,3.0033,0,0,0,3-3V18.22A5.0051,5.0051,0,0,0,36.6494,13.9717ZM17,3H31l.0015,3H17ZM12.4092,15.668l6.12-3.82A.9989.9989,0,0,0,19,11V8H29v3a.9989.9989,0,0,0,.4707.8481l6.1147,3.8169A3.0119,3.0119,0,0,1,37,18.22V20H11V18.22A3.0105,3.0105,0,0,1,12.4092,15.668ZM37,40H11V22H37Zm-1,5H12a1.0013,1.0013,0,0,1-1-1V42H37v2A1.0013,1.0013,0,0,1,36,45ZM18,34h3v3a1,1,0,0,0,1,1h4a1,1,0,0,0,1-1V34h3a1,1,0,0,0,1-1V29a1,1,0,0,0-1-1H27V25a1,1,0,0,0-1-1H22a1,1,0,0,0-1,1v3H18a1,1,0,0,0-1,1v4A1,1,0,0,0,18,34Zm1-4h3a1,1,0,0,0,1-1V26h2v3a1,1,0,0,0,1,1h3v2H26a1,1,0,0,0-1,1v3H23V33a1,1,0,0,0-1-1H19Z"/></g></svg>