<svg fill="#3b82f6" xmlns="http://www.w3.org/2000/svg" viewBox="0 0 48 48"><title>Healthcare</title><g id="Healthcare"><path d="M43.8652,7.4561a13.6092,13.6092,0,0,0-9.3086-5.3779,13.1251,13.1251,0,0,0-9.916,3.0469.9655.9655,0,0,1-1.2812,0,13.1227,13.1227,0,0,0-9.916-3.0469,13.6115,13.6115,0,0,0-9.3086,5.377A16.1585,16.1585,0,0,0,5.3105,28.0117l15.0566,16.374a4.8949,4.8949,0,0,0,7.2656,0l15.0566-16.374A16.1572,16.1572,0,0,0,43.8652,7.4561ZM41.2168,26.6582,26.16,43.0322a2.9606,2.9606,0,0,1-4.32,0L6.7832,26.6582A14.1377,14.1377,0,0,1,5.7207,8.6748a11.623,11.623,0,0,1,7.9424-4.6084A10.9839,10.9839,0,0,1,14.875,3.999,11.2013,11.2013,0,0,1,22.0781,6.66a2.9593,2.9593,0,0,0,3.8438,0,11.1333,11.1333,0,0,1,8.415-2.5937,11.6207,11.6207,0,0,1,7.9424,4.6094A14.1364,14.1364,0,0,1,41.2168,26.6582ZM32,19H27V14a.9994.9994,0,0,0-1-1H22a.9994.9994,0,0,0-1,1v5H16a.9994.9994,0,0,0-1,1v4a.9994.9994,0,0,0,1,1h5v5a.9994.9994,0,0,0,1,1h4a.9994.9994,0,0,0,1-1V25h5a.9994.9994,0,0,0,1-1V20A.9994.9994,0,0,0,32,19Zm-1,4H26a.9994.9994,0,0,0-1,1v5H23V24a.9994.9994,0,0,0-1-1H17V21h5a.9994.9994,0,0,0,1-1V15h2v5a.9994.9994,0,0,0,1,1h5Z"/></g></svg>