<svg fill="#3b82f6" xmlns="http://www.w3.org/2000/svg" viewBox="0 0 48 48"><title>Syrine</title><g id="Syrine"><path d="M46.4141,7.2427,40.7573,1.5859a2.048,2.048,0,0,0-2.8281,0l-.708.708a2.0027,2.0027,0,0,0,0,2.8276l.7117.7117L35.1047,8.6614,32.272,5.8286a2.001,2.001,0,0,0-2.8281,0l-.707.707a2.0019,2.0019,0,0,0,0,2.8281l.0023.0023L11.7632,26.333a5.01,5.01,0,0,0-.6357,6.2957L9.6431,34.1128a1.999,1.999,0,0,0,0,2.8242l.0029.0029L1.293,45.293A1,1,0,1,0,2.707,46.707l8.353-8.353.0029.0029a1.9993,1.9993,0,0,0,2.8242,0l1.4841-1.4844a5.0108,5.0108,0,0,0,6.2957-.6353L38.6443,19.27a2,2,0,0,0,2.82-.0067l.707-.707a2.0019,2.0019,0,0,0,0-2.8281l-2.8328-2.8328,2.8286-2.8286.7117.7117a2.0034,2.0034,0,0,0,2.8286,0l.7061-.707a1.9993,1.9993,0,0,0,0-2.8286ZM11.7709,36.2387l-.0038-.0058-.0059-.0039-.7041-.7021,1.413-1.4127,1.4163,1.4163-1.4094,1.4124Zm4.2359-1.416-2.83-2.83a3.0057,3.0057,0,0,1,0-4.2456l16.9764-16.967,7.0754,7.0754L35.8142,19.27l-1.4207-1.421a1,1,0,0,0-1.4141,1.4141l1.42,1.4206-2.1221,2.121-1.42-1.42a1,1,0,0,0-1.4141,1.4141l1.4193,1.42-2.122,2.1208L27.3223,24.92a1,1,0,0,0-1.4141,1.4141l1.4185,1.4185-2.122,2.1208-1.418-1.4177A1,1,0,0,0,22.3726,29.87L23.79,31.2874l-2.1221,2.1209L20.251,31.9912a1,1,0,0,0-1.4141,1.4141l1.4167,1.4167-.0007.0007A3.0054,3.0054,0,0,1,16.0068,34.8228ZM40.0513,17.85l-9.9-9.9.707-.707,9.8994,9.8994Zm-2.1267-6.3689-1.4058-1.4058,2.8286-2.8286,1.4058,1.4058Zm6.3694-2.1165L38.6357,3.7075,39.3433,3,45,8.6567Z"/></g></svg>